<svg width="591" height="591" viewBox="0 0 591 591" fill="none" xmlns="http://www.w3.org/2000/svg">
<path d="M511.143 79.6483C499.612 68.1177 480.916 68.1174 469.385 79.6484L295.395 253.639L121.406 79.6483C109.875 68.1173 91.1795 68.1171 79.6481 79.6484C68.1175 91.179 68.1172 109.875 79.6482 121.406L253.638 295.396L79.6481 469.386C68.1172 480.917 68.1175 499.613 79.6481 511.143C91.1795 522.675 109.875 522.675 121.406 511.143L295.396 337.153L469.385 511.143C480.916 522.675 499.612 522.674 511.143 511.143C522.674 499.612 522.674 480.917 511.143 469.386L337.153 295.396L511.143 121.406C522.674 109.875 522.674 91.1797 511.143 79.6483Z" fill="#3A2F45"/>
</svg>
