<svg width="591" height="620" viewBox="0 0 591 620" fill="none" xmlns="http://www.w3.org/2000/svg">
<path d="M509.157 122.414C533.141 150.058 551.917 182.318 563.973 217.647L556.052 222.24C523.404 241.174 509.442 277.156 509.442 309.875C509.442 342.594 523.404 378.576 556.052 397.51L564.118 402.188C552.061 437.644 533.276 469.918 509.294 497.468L501.571 492.989C468.91 474.048 430.699 479.929 402.392 496.326C374.175 512.672 350.216 542.674 350.216 580.247V589.745C315.023 596.598 277.651 596.904 240.897 589.745V580.25C240.897 542.624 216.748 512.706 188.638 496.425C160.408 480.075 122.219 474.039 89.5181 493.004L81.8325 497.461C57.8487 469.817 39.0723 437.557 27.0167 402.228L34.9376 397.635C67.5852 378.701 81.5472 342.719 81.5472 310C81.5472 277.281 67.5853 241.299 34.9377 222.365L27.0105 217.768C39.0673 182.332 57.8443 150.076 81.8138 122.538L89.398 126.947C122.056 145.931 160.294 140.066 188.616 123.663C216.824 107.327 240.773 77.3349 240.773 39.7771V30.2548C275.966 23.4021 313.339 23.0964 350.092 30.2548V39.6253C350.092 77.2512 374.241 107.169 402.351 123.45C430.581 139.8 468.77 145.836 501.471 126.871L509.157 122.414ZM20.0306 406.28L20.0797 406.251C20.0481 406.27 20.0162 406.288 19.9843 406.306L20.0306 406.28ZM170.858 309.875C170.858 378.706 226.635 434.875 295.432 434.875C364.23 434.875 420.007 378.706 420.007 309.875C420.007 241.044 364.23 184.875 295.432 184.875C226.635 184.875 170.858 241.044 170.858 309.875Z" stroke="#3A2F45" stroke-width="50"/>
</svg>
