<svg width="496" height="496" viewBox="0 0 496 496" fill="none" xmlns="http://www.w3.org/2000/svg">
<path d="M496 248C496 384.997 384.957 496 248 496C111.043 496 0 384.997 0 248C0 111.083 111.043 0 248 0C384.957 0 496 111.083 496 248ZM248 298C222.595 298 202 318.595 202 344C202 369.405 222.595 390 248 390C273.405 390 294 369.405 294 344C294 318.595 273.405 298 248 298ZM204.327 132.654L211.745 268.654C212.092 275.018 217.354 280 223.727 280H272.273C278.646 280 283.908 275.018 284.255 268.654L291.673 132.654C292.048 125.78 286.575 120 279.691 120H216.308C209.424 120 203.952 125.78 204.327 132.654V132.654Z" fill="#FF0000"/>
</svg>
